<?xml version="1.0" standalone="no"?>
<!DOCTYPE svg PUBLIC "-//W3C//DTD SVG 1.1//EN" "http://www.w3.org/Graphics/SVG/1.1/DTD/svg11.dtd" >
<svg xmlns="http://www.w3.org/2000/svg" xmlns:xlink="http://www.w3.org/1999/xlink" version="1.1">
<metadata></metadata>
<defs>
<font id="myscriptfontmedium" horiz-adv-x="20" >
<font-face units-per-em="2048" ascent="1638" descent="-410" />
<missing-glyph horiz-adv-x="860" />
<glyph horiz-adv-x="0" />
<glyph horiz-adv-x="682" />
<glyph unicode=" "  horiz-adv-x="860" />
<glyph unicode="&#x09;" horiz-adv-x="860" />
<glyph unicode="&#xa0;" horiz-adv-x="860" />
<glyph unicode="!" horiz-adv-x="419" d="M22 244q-5 10 5 31.5t28 39.5q42 42 59.5 43.5t57.5 -34.5q61 -57 26 -148q-10 -23 -43 -31.5t-65.5 2t-41.5 34.5q-10 29 -26 63zM130 598q9 64 92 380q55 204 55 277q0 70 16 82q18 18 45.5 13t49.5 -31q15 -19 10.5 -66t-32.5 -170q-47 -201 -80 -303q-15 -38 -22 -97 t-4 -102q5 -82 -20.5 -101t-83.5 24q-35 30 -26 94z" />
<glyph unicode="#" horiz-adv-x="757" d="M25 773q10 31 32 39.5t93 6.5h54.5t36 4t25.5 7.5t14 17.5t11.5 26.5t8.5 41.5q10 45 28.5 63t36.5 2.5t25 -58.5q8 -44 21.5 -54.5t56.5 -3.5q66 7 82.5 20.5t16.5 61.5q0 51 22 99q44 77 83 7q22 -40 -8 -95q-11 -22 -14.5 -31t-1 -19t12 -15t31.5 -14q41 -16 44 -26 t-24 -36q-41 -37 -81 -37q-17 0 -29.5 -10t-12.5 -23q0 -15 14.5 -24.5t40.5 -9.5q58 0 52 -19.5t-74 -52.5q-121 -57 -121 -205q0 -47 -34.5 -66t-56.5 15q-20 33 -8 75q4 14 12.5 48.5t11.5 44.5q10 34 -0.5 37t-68.5 -15q-57 -16 -93.5 -65.5t-16.5 -82.5q3 -7 -6.5 -23 t-26.5 -32q-32 -30 -55.5 -27.5t-27 32t12.5 77.5q16 44 14.5 61.5t-21.5 28.5q-14 7 -23.5 26.5t-9.5 41.5q0 21 -13.5 45.5t-32.5 38.5q-49 30 -33 77zM148 691q0 -9 9 -15.5t22 -6.5t27 7t19 15q5 10 -4 16t-27 6q-20 0 -33 -6t-13 -16zM326 685q5 -16 45 -16 q41 0 85.5 22.5t44.5 44.5q0 15 -31 19.5t-67.5 -2.5t-51.5 -22q-30 -30 -25 -46z" />
<glyph unicode="$" horiz-adv-x="806" d="M22.5 631q11.5 71 49.5 78q25 5 30 -3.5t-4 -42.5q-15 -66 5 -67t47 56q5 10 10 22q25 66 23.5 84.5t-34.5 49.5q-27 25 -29 59.5t16.5 66.5t56 60t84.5 41q20 5 40.5 28t31.5 53q25 70 55 119q15 22 34 36.5t32 14.5q25 0 31 -24.5t-6.5 -60t-39.5 -65.5l-51 -55l88 18 q179 34 258 -8q52 -27 31 -80q-8 -21 -24.5 -26t-50.5 4q-91 26 -212.5 6.5t-144.5 -63.5q-22 -40 -9.5 -63t53.5 -23q16 0 48 -17t60 -41q41 -33 54.5 -61t13.5 -77q0 -96 -80.5 -149.5t-222.5 -55.5q-61 0 -82.5 -9.5t-34.5 -45.5q-16 -46 -41 -45q-25 2 -33 49l-3 29 q-4 71 -29 101q-32 36 -20.5 107zM213 551q17 -18 74.5 -12t105.5 31q56 30 75.5 77.5t-11.5 77.5q-30 26 -85.5 39t-77.5 -2q-23 -15 -58.5 -107.5t-22.5 -103.5z" />
<glyph unicode="%" horiz-adv-x="970" d="M30 857q-50 124 143 323q76 76 114 102.5t67 21.5q30 -3 43.5 -19t16.5 -54q3 -27 20.5 -61.5t40.5 -55.5q26 -25 35.5 -46t0.5 -33.5t-34 -12.5q-11 0 -33 -32t-42 -76q-33 -76 -54.5 -94.5t-88.5 -28.5q-80 -11 -147 8t-82 58zM132 932q0 -25 14.5 -33.5t57.5 -8.5 q66 0 92 17.5t40 68.5q7 28 -7 66t-37.5 61t-40.5 11q-34 -25 -76.5 -89.5t-42.5 -92.5zM180 403.5q2 51.5 71 127.5q66 71 218.5 277t280.5 397q108 157 151 166q25 5 39 -32q18 -53 -139 -229q-43 -46 -145 -198q-138 -198 -201 -291q-42 -60 -79.5 -124t-47.5 -92 q-15 -43 -31.5 -54.5t-52.5 -6.5q-66 8 -64 59.5zM466 443q-7 65 23.5 124t124.5 166q60 67 98.5 90.5t75 14.5t88.5 -56q152 -143 -11 -300q-139 -133 -315 -116q-52 5 -65.5 17.5t-18.5 59.5zM572 487q0 -28 13.5 -33.5t57.5 4.5q95 19 166 94q61 63 50 111q-6 26 -36 37 q-31 13 -39 11q-9 -1 -66 -36q-2 -1 -5 -3q-61 -39 -101 -91t-40 -94z" />
<glyph unicode="&#x26;" horiz-adv-x="776" d="M24 350q-15 58 34 159t140 200l92 101l-37 110q-24 70 -42 93t-53 26q-41 5 -79 49q-35 40 -18 55q3 3 7 4q5 2 16.5 8t28.5 15t30 15q52 30 67 31.5t34 -18.5q8 -8 86.5 -16.5t175.5 -9.5q188 -5 217 -14q24 -8 29 -31q1 -5 3 -17q4 -34 -9.5 -59.5t-55 -62.5 t-140.5 -112q-192 -145 -112 -185q26 -14 83 -17q89 -5 142 -54t52 -120.5t-59 -140.5q-32 -38 -40 -53t-5 -30.5t23 -50.5q21 -35 24 -59.5t-11 -48.5q-18 -36 -41 -40t-42 22.5t-25 74.5q-7 54 -18 70t-37 11q-164 -24 -261.5 -21.5t-140.5 29t-58 87.5zM125 388 q5 -44 26.5 -51.5t140.5 -6.5q53 0 86 2t57.5 8t34.5 15t11.5 25.5t-5.5 36.5t-23 52q-49 90 -57 90q-15 0 -68 -64.5t-53 -82.5q0 -12 -10 -20.5t-25 -8.5q-37 0 -30 60q8 69 58 132q14 18 29 31q27 24 42 44.5t8 25.5q-18 19 -35.5 11t-60.5 -55q-136 -153 -126 -244z M297 1039q0 -33 28 -102t42 -69q15 0 88 64q78 64 124 88q19 10 33.5 24t14.5 22q0 20 -114 20q-116 -3 -166 -14t-50 -33zM495 559q0 -29 35 -90q19 -41 33 -49t33 9q51 45 13 100q-17 28 -67 41q-44 9 -47 -11z" />
<glyph unicode="(" horiz-adv-x="534" d="M20.5 381.5q1.5 82.5 24.5 164.5q46 160 282 443q162 198 184 104q3 -15 3 -38q0 -36 -13 -57t-44 -36q-59 -30 -159.5 -163.5t-144.5 -241.5q-46 -117 -28.5 -203.5t103.5 -166.5q75 -67 77 -117q1 -39 -48 -39q-38 0 -115 76.5t-103 139.5q-20 52 -18.5 134.5z" />
<glyph unicode=")" horiz-adv-x="571" d="M34 112q-28 28 4 64t141 99q131 77 184 125.5t87 125.5q35 79 7.5 212t-99.5 233q-78 107 -35 145q40 41 100 -42q69 -95 107 -257q21 -91 22 -172q2 -111 -31 -182t-124 -152q-73 -65 -210 -140t-153 -59z" />
<glyph unicode="*" horiz-adv-x="471" d="M22 945q-8 25 17 58.5t60 44.5q15 6 14 18t-18 39q-17 28 -18.5 46.5t11.5 42.5q28 43 59.5 34t57.5 -67q21 -47 35 -60.5t28.5 -2t37.5 55.5q14 26 35 52t36 34q41 24 57 24q14 0 16 -27t-8 -59t-26 -46q-13 -11 -23 -28.5t-10 -28.5q0 -13 9.5 -22t23.5 -9q34 0 34 -23 q-1 -25 -36 -44q-13 -7 -28 -10l-66 -13l55 -80q46 -68 49.5 -104t-32.5 -50q-36 -12 -94 57l-60 73l-62 -90q-52 -75 -101 -89q-40 -2 -44 38q0 17 16.5 52t40.5 65l55 75l-55 6q-21 3 -41 14.5t-25 23.5z" />
<glyph unicode="+" horiz-adv-x="499" d="M20 551q0 34 16.5 51.5t58 26.5t130.5 16q22 2 30 20t8 66q0 87 15 99q39 41 60 -1q13 -27 13 -80q0 -68 10 -85.5t56 -27.5q43 -10 57 -22.5t-4 -24.5t-66 -21q-66 -11 -92.5 -57.5t-26.5 -151.5q0 -72 -19.5 -81.5t-68.5 39.5q-28 28 -30 45t19 59q39 75 33 107 q-2 9 -9 9q-11 0 -68 -31q-58 -30 -90 -18t-32 63z" />
<glyph unicode="," horiz-adv-x="301" d="M21 -114q-1 4 27 15q68 27 100 91q28 57 2 88q-15 17 -45 17q-34 0 -44.5 12t-10.5 52q0 25 13.5 61t32.5 60q99 126 161 -31q30 -75 23.5 -168t-45.5 -156q-19 -31 -45 -40.5t-91 -7.5q-78 0 -78 7z" />
<glyph unicode="-" horiz-adv-x="509" d="M22 528q4 21 15 31q17 18 181 13.5t235 -26.5q49 -15 32 -38q-19 -27 -89 -32q-24 -2 -49 0q-64 0 -178 -14q-66 -8 -92 -8.5t-37.5 7t-16.5 28.5q-5 18 -1 39z" />
<glyph unicode="." horiz-adv-x="258" d="M21 127q6 62 44 111q38 48 61 54t71 -19q36 -20 41 -81.5t-25 -127.5q-20 -45 -76 -55t-92 26q-30 30 -24 92z" />
<glyph unicode="/" horiz-adv-x="733" d="M21.5 260q-5.5 12 5.5 35t36 52.5t77 86.5q135 148 281 386.5t146 311.5q0 20 22 68q22 36 66 39.5t58 -30.5q11 -27 -73.5 -191.5t-201.5 -349t-190 -263.5q-50 -53 -66 -106q-13 -44 -60 -66.5t-77 0.5q-18 15 -23.5 27z" />
<glyph unicode="0" horiz-adv-x="790" d="M26 359q-20 52 30 206t136 316.5t160 237.5q67 67 124.5 75.5t143.5 -36.5q94 -48 126 -131.5t22 -255.5q-17 -288 -129.5 -409t-361.5 -118q-127 0 -176 23t-75 92zM133.5 431q2.5 -55 31.5 -74q34 -23 170.5 -9.5t185.5 46.5q151 102 154 399q2 112 -5.5 156t-33.5 71 q-64 67 -168 30q-44 -16 -93.5 -69t-92 -122.5t-78 -150t-54.5 -151.5t-16.5 -126z" />
<glyph unicode="1" horiz-adv-x="765" d="M31 383q30 44 116 44q96 0 149.5 46t83.5 152q35 119 35 196q0 48 -7.5 55t-38.5 -11q-28 -15 -43.5 -13t-35.5 22q-22 21 -23 51.5t17.5 52.5t47.5 22q49 0 88 40.5t39 91.5q0 23 8 48t19 36q26 26 41 26q20 0 53 -36.5t25 -49.5q-9 -11 -22 -70q-32 -157 -113 -498 q-29 -123 -28 -141q2 -20 26 -19q7 0 46 6q83 14 157.5 -9.5t74.5 -63.5q0 -41 -5 -46l-33 -2q-34 -2 -94 -4.5t-117 -4.5q-230 -7 -326 -29q-51 -11 -76 -8.5t-43 21.5q-51 51 -21 95z" />
<glyph unicode="2" horiz-adv-x="612" d="M25 347q-25 50 92 182q160 183 235.5 282t99.5 154q33 76 29.5 88.5t-58.5 12.5q-35 0 -66.5 -23.5t-80.5 -86.5q-37 -46 -73.5 -78t-52.5 -32q-30 0 -49.5 45t3.5 65q4 4 24.5 22t55.5 49.5l65 58.5q95 85 144.5 102t119.5 -10q53 -20 67 -83t-16 -146 q-19 -58 -147.5 -232.5t-187.5 -225.5q-17 -13 -21.5 -20t0.5 -11.5t23 -10.5q37 -12 183 5q121 16 155 0t17 -82q-10 -40 -27.5 -46t-91.5 2q-96 15 -247 -6q-170 -25 -195 25z" />
<glyph unicode="3" horiz-adv-x="909" d="M28 414q-20 80 5 121q19 31 44 6q15 -14 26 -46q22 -61 79 -78.5t190 -4.5q147 14 218.5 78.5t76.5 189.5q3 55 -62.5 75.5t-166.5 -2.5q-67 -15 -94 -14.5t-38 16.5q-25 41 0 79.5t86 55.5q68 18 183 101q92 66 90 87q-1 4 -5 5q-27 8 -171 -15q-121 -18 -155 -6t-24 70 q5 36 36.5 44t184.5 11q212 4 231 18q12 15 64 15q36 0 52.5 -23t6.5 -56.5t-44 -61.5q-1 -1 -123 -103l-66 -58l46 -46q18 -18 36.5 -61.5t25.5 -85.5q30 -200 -93 -315t-366 -115q-114 0 -186 31.5t-87 87.5z" />
<glyph unicode="4" horiz-adv-x="811" d="M20 632q0 10 45 61.5t105 108.5q139 134 206 218t107 174q24 54 43 74.5t36 11t35 -50.5q15 -33 15 -53.5t-15 -45.5q-26 -38 -26 -73q0 -24 -50.5 -156t-83.5 -192q-23 -47 -17 -76.5t39 -29.5q151 0 242 91q48 48 69 47t21 -52q0 -41 -56.5 -87.5t-141 -77.5 t-159.5 -31q-50 0 -81 -41.5t-18 -90.5q8 -31 -1.5 -57t-27.5 -38.5t-42.5 -9t-44.5 27.5q-16 20 -13.5 50t24.5 104q23 73 25.5 104t-14.5 50q-26 32 -48.5 32t-53.5 -32q-28 -28 -73.5 -12t-45.5 52zM302 709q22 -22 60 57q45 95 22 85q-15 -7 -53 -54q-52 -65 -29 -88z " />
<glyph unicode="5" horiz-adv-x="763" d="M20 511q0 61 41 71.5t142 -23.5q58 -21 92 -30t60.5 -12t40.5 7t24 26.5t19 48.5q11 32 16 79t2 80q-5 55 -17 65t-67 5q-75 -4 -128 -40q-61 -41 -83 -7q-25 37 15 120q9 18 20 37q40 67 57 165q17 107 45.5 135.5t97.5 3.5q46 -15 77 -13.5t86 20.5q81 31 128.5 28.5 t54.5 -37.5q4 -24 -32 -50t-100.5 -46.5t-136.5 -27.5q-80 -8 -102.5 -20.5t-38.5 -60.5q-27 -71 -20.5 -81t77.5 -3q99 8 134 -31.5t32 -155.5q-11 -195 -84 -317q-22 -36 -94 -72t-122 -36q-103 0 -169.5 49t-66.5 123z" />
<glyph unicode="6" horiz-adv-x="679" d="M20 597q0 89 99.5 239.5t275.5 328.5q73 73 117.5 104.5t80.5 34.5q43 3 54.5 -6t11.5 -45q0 -33 -20 -53t-79 -48q-40 -18 -93 -59.5t-88 -81.5q-206 -231 -148 -221q12 2 34 14q47 24 131 0.5t131 -73.5q36 -40 42.5 -93t-15.5 -104.5t-60.5 -96t-95.5 -71.5t-118 -27 q-99 0 -179.5 79.5t-80.5 178.5zM176.5 540.5q-2.5 -46.5 44.5 -69.5q43 -23 98 -11t98 55q40 40 42 73.5t-33 67.5q-38 38 -93.5 32.5t-102.5 -52.5q-51 -49 -53.5 -95.5z" />
<glyph unicode="7" horiz-adv-x="761" d="M21 859.5q0 35.5 41 144.5q44 117 44 163q0 44 24 68q22 22 66 3t150 -95q164 -120 246 22q38 65 52 71.5t58 -16.5q48 -27 38.5 -70.5t-77.5 -118.5q-54 -56 -100.5 -121.5t-100 -148.5t-92.5 -136q-36 -49 -66 -109t-35 -93q-13 -78 -43.5 -107t-64.5 1q-13 11 -23 31 t-10 35q0 16 52.5 106t127.5 202q79 114 124 195.5t35 89.5q-11 11 -119 50.5t-126 39.5q-4 0 -61 -121q-30 -68 -51 -94.5t-46 -26.5q-43 0 -43 35.5z" />
<glyph unicode="8" horiz-adv-x="856" d="M22 374.5q-11 56.5 27 133t113 144.5l88 79l-53 46q-46 41 -49.5 88t32.5 119q38 73 113.5 134t236.5 148q61 33 88.5 37t36.5 -21q3 -10 21.5 -20t40.5 -13q88 -13 109.5 -90.5t-14.5 -242.5q-19 -80 -38.5 -117t-52.5 -59q-40 -25 -49 -48.5t-4 -92.5q7 -97 -28 -154.5 t-121 -92.5q-76 -30 -222.5 -46.5t-205.5 -1.5q-58 14 -69 70.5zM122 438q0 -33 62.5 -44t151.5 3t161 48q74 36 86 103t-47 108q-47 33 -86 32.5t-119 -38.5q-69 -32 -139 -102.5t-70 -109.5zM254 896q0 -48 31 -58.5t194 -20.5q164 -13 203 13q28 22 49.5 117t11.5 158 q-7 39 -30.5 43t-151.5 -14q-61 -9 -134 -50.5t-123 -95t-50 -92.5z" />
<glyph unicode="9" horiz-adv-x="638" d="M21 699q-1 123 35 197q33 71 152.5 187t190.5 146q89 38 152.5 -0.5t65.5 -129.5q3 -180 -13 -280.5t-57 -144.5q-23 -25 -48 -65t-36 -72q-32 -84 -107 -197.5t-113 -132.5q-44 -22 -88 -22q-30 0 -37.5 15t-2.5 69q5 55 16.5 68t54.5 13q36 0 60.5 17.5t55.5 68.5 l55 86l-61 -16q-56 -12 -83 -17.5t-56 -9t-39.5 -3t-24 6.5t-19 13.5t-16.5 23.5q-36 56 -37 179zM111 696q0 -73 30.5 -90t108.5 11q104 36 147.5 72t54.5 95q15 68 38 99q20 28 24 132q3 92 -25 107t-112 -36q-119 -72 -192.5 -180.5t-73.5 -209.5z" />
<glyph unicode=":" horiz-adv-x="309" d="M23.5 315q10.5 41 48.5 79q55 55 66 55q25 0 52.5 -45t27.5 -85q0 -59 -33 -87t-93 -21q-42 4 -60.5 33.5t-8 70.5zM121 617q-70 67 11 171q29 36 45 46.5t31.5 4t42.5 -36.5q28 -32 35.5 -98t-13.5 -101q-15 -25 -70 -20.5t-82 34.5z" />
<glyph unicode=";" horiz-adv-x="446" d="M21 14q3 27 67 67q84 53 117 93q15 18 17.5 28t-4.5 19t-31 26q-43 28 -46 80.5t38 75.5q41 25 66 21.5t55 -36.5q35 -39 43 -95.5t-13 -114.5q-18 -56 -106.5 -123.5t-141.5 -67.5q-65 0 -61 27zM218 586q-22 35 7.5 95t78.5 79q44 18 58 17t37 -24q33 -33 26 -104 t-46 -90q-43 -24 -90.5 -16t-70.5 43z" />
<glyph unicode="&#x3c;" horiz-adv-x="782" d="M28 579q-18 28 6 73t62 53q72 18 264.5 130t257.5 174q38 34 58 50t36 22.5t23.5 2t16.5 -19.5q22 -33 -2.5 -81.5t-74.5 -73.5q-97 -46 -268.5 -148.5t-171.5 -113.5q0 -17 127.5 -64.5t204.5 -58.5q81 -14 106.5 -51.5t-20.5 -78.5q-30 -26 -45 -25t-59 32 q-49 34 -188 81.5t-241 65.5q-80 12 -92 31z" />
<glyph unicode="=" horiz-adv-x="974" d="M22 918q-7 60 11 60q17 4 346 11q332 13 341 22q22 23 62 5.5t40 -49.5q0 -30 -33 -38t-177 -13q-197 -3 -352 -29q-172 -28 -202.5 -24t-35.5 55zM151 637q1 9 3 28q5 40 24.5 52.5t92.5 20.5q105 14 318 4t296 -33q76 -19 68 -33q-15 -24 -217 -17q-25 1 -51 2 q-123 7 -203.5 2t-155.5 -24h-2q-132 -35 -154 -32q-20 3 -19 30z" />
<glyph unicode="&#x3e;" horiz-adv-x="630" d="M20 923q0 49 16 61q20 21 44 9.5t81 -68.5q61 -61 172.5 -97t182.5 -18q30 8 46.5 2t30.5 -30q16 -31 19 -49.5t-13.5 -43.5t-49.5 -49.5t-101 -69.5q-68 -43 -138.5 -100.5t-101.5 -92.5q-76 -90 -118 -80q-25 6 -25 51q0 28 36.5 68t125.5 108q153 116 178 144 q27 31 -1 45q-16 8 -88 23q-119 25 -207.5 80.5t-88.5 106.5z" />
<glyph unicode="?" horiz-adv-x="538" d="M22 316.5q0 24.5 35 157.5q1 5 2 8q10 36 13 91t-2 96q-6 64 1 101.5t27.5 46.5t53.5 -11q32 -19 49.5 -17t53.5 28q77 58 111.5 120t34.5 144l2 106l-84 -2q-36 -1 -78 -16t-69 -35q-44 -31 -66.5 -39t-35.5 2.5t-22 45.5q-14 53 4 70t124 53q162 56 245 33.5t94 -125.5 q11 -89 -19.5 -188t-91.5 -177.5t-133 -108.5q-20 -9 -29 -13t-20 -15.5t-14.5 -20.5t-8.5 -35t-7.5 -51t-6.5 -76q-14 -153 -37.5 -195t-83.5 -19q-2 1 -5 2q-37 15 -37 39.5zM26 154q13 50 52 50q36 1 58 -41q14 -25 14 -59q0 -30 -11.5 -40.5t-41.5 -10.5q-50 0 -67 24.5 t-4 76.5z" />
<glyph unicode="@" horiz-adv-x="1124" d="M22 438q13 97 103 210t231 210.5t296 154.5q144 52 220.5 50.5t116.5 -57.5q45 -67 80 -147.5t35 -118.5q0 -59 -79.5 -194.5t-127.5 -160.5q-34 -15 -42.5 -26.5t4.5 -25.5q46 -47 16 -86.5t-111 -39.5q-48 0 -70 -22q-37 -37 -155 -47t-245 10t-186 61q-43 32 -68.5 99 t-17.5 130zM154 341q22 -39 112.5 -75.5t165.5 -36.5q61 0 171 32.5t146 62.5q31 26 -28 47q-84 29 -226 20q-4 -1 -8 -1q-139 -10 -183 17.5t-28 116.5q15 79 77 152.5t143 112.5t150 26q46 -8 65 -23.5t29 -51.5q5 -25 19.5 -53.5t29.5 -43.5q20 -23 21.5 -44t-13.5 -62 q-16 -48 -12 -57t39 -4q38 5 114.5 109.5t76.5 152.5q0 15 -14.5 47t-35.5 63q-46 69 -118.5 79t-194.5 -35q-118 -42 -178.5 -81.5t-175.5 -147.5q-209 -196 -144 -322zM391.5 518q6.5 -25 71.5 -25q59 0 87.5 33t15.5 88q-31 112 -132 -13q-49 -58 -42.5 -83z" />
<glyph unicode="A" horiz-adv-x="831" d="M28 242q22 83 88 190q37 59 64 112.5t27 67.5q0 31 107 194q133 206 168 271q65 116 112 158q22 19 37.5 43.5t15.5 38.5q0 13 11.5 29t28.5 26q22 13 39.5 7.5t45.5 -33.5q33 -32 38 -56q1 -6 1 -15q0 -25 -10 -70q-22 -87 -26 -331q-1 -96 -9 -175t-16 -89 q-8 -12 -12 -76q-2 -37 -2 -78q0 -31 1 -64q2 -61 2.5 -101.5t-2.5 -59.5q-5 -39 -28 -55q-21 -13 -37 -13q-25 0 -36 33q-18 50 -18 204v16v29q0 124 -10 150q-10 27 -45 27h-9q-26 -3 -111 -27q-15 -5 -23 -7q-55 -15 -95.5 -35t-45.5 -35q-23 -66 -123 -220 q-96 -150 -114 -150h-1q-21 7 -21 41q0 21 8 53zM405 711q0 -20 39 -13q6 2 61.5 12.5t98.5 24t45 29.5q0 1 9 88q10 86 19 172q7 70 7 83q0 37 -152 -181q-128 -183 -127 -215z" />
<glyph unicode="B" horiz-adv-x="872" d="M21 304q-1 7 -1 14q0 40 20 76q26 47 53.5 125.5t58.5 184t44 142.5q37 111 51 246q13 130 27 150q14 22 52 22t60 -22q12 -12 57 -12q37 0 97 8q70 9 122 9q44 -1 74 -7q66 -14 97 -66q20 -35 20 -75q-1 -19 -5 -40q-14 -63 -70 -119l-55 -55l48 -75q29 -48 37 -88 q4 -21 4 -53q0 -28 -3 -63q-8 -118 -58 -189t-169 -131q-96 -49 -148 -53h-12q-52 0 -148 29q-71 21 -94 21q-2 -1 -3 -1q-21 -2 -40 -31q-24 -35 -50 -35q-12 0 -25 8q-36 21 -41 80zM190 454.5q2 -14.5 4 -18t12 -14t16.5 -13t26 -12t32.5 -14t43 -15.5q37 -14 73 -14 q19 0 37 4q54 10 105 37t89 71t58 90q16 36 16 73q0 11 -1 22q-6 49 -42 85q-39 38 -89 41h-9q-49 0 -133 -30q-91 -34 -124 -34t-81 -136q-10 -29 -15 -41.5t-10 -33t-7.5 -27t-0.5 -21zM342 972q-4 -24 -4 -40q0 -35 15 -45q11 -6 30 -6q31 1 85 17q88 28 170 75.5 t96 83.5q5 14 5 27q0 26 -21 44q-28 24 -70 24h-9q-39 0 -126.5 -31.5t-131.5 -59.5q-28 -19 -39 -89z" />
<glyph unicode="C" horiz-adv-x="765" d="M32 425q-12 33 -11 75q0 105 70 273q66 160 204 309t243 175q40 9 70 9q28 0 48 -8q42 -16 67 -75q22 -49 22 -79q-1 -6 -1 -12q-6 -32 -45 -46q-19 -7 -37 -7q-20 0 -36 9q-32 17 -33 53q0 38 -28 38q-10 0 -25 -5q-31 -12 -83 -46q-87 -58 -160 -156t-120 -221 q-44 -113 -44 -181q0 -34 11 -56q30 -61 152 -61q13 0 27 1q68 1 103.5 14.5t74.5 49.5q44 43 60 47t41 -21q33 -33 33 -60q0 -10 -6 -20q-19 -34 -115 -78q-74 -34 -124 -43q-32 -6 -76 -6q-25 0 -53 2q-189 14 -229 126z" />
<glyph unicode="D" horiz-adv-x="944" d="M24 320q-4 11 -4 22q0 29 29 61q33 38 121 303.5t88 328.5q0 17 -1 67t-1 72q0 75 28 92q33 19 56 15.5t96 -39.5q88 -44 124 -44q33 0 138 -57q162 -87 210 -251q15 -53 16 -104q0 -104 -67 -196q-72 -98 -133 -146.5t-186 -106.5q-180 -84 -324 -84q-57 0 -108 13 q-66 16 -82 54zM185 381q8 -17 51 -16q6 -1 12 -1q54 2 120 16t134.5 39.5t105.5 53.5q45 33 115 108.5t88 109.5q22 47 22 98q0 17 -2 33q-9 68 -56.5 134t-117.5 103q-53 29 -116 43q-43 9 -76 9q-16 -1 -30 -3q-43 -6 -43 -31q0 -35 -19 -73q-30 -52 -114 -330 q-75 -249 -75 -287q0 -5 1 -6z" />
<glyph unicode="E" horiz-adv-x="876" d="M21 363q0 36 48 142q6 11 22 46q77 167 118.5 295.5t63.5 261.5q11 72 21 108t27 52.5t38 12t60 -25.5q54 -29 113 -29q10 0 22 2q72 6 184 54q57 24 71 24q14 2 27.5 -19t17 -45.5t-3.5 -41.5q-15 -21 -106.5 -43.5t-225.5 -37.5q-38 -3 -73 -11.5t-42 -15.5 q-11 -11 -47 -133.5t-36 -148.5q0 -5 98 -5q49 0 122 1q44 1 79 1q148 0 148 -25q0 -2 -1 -4q-5 -10 -30 -23q-24 -13 -196 -49t-238 -43q-27 -1 -47.5 -24t-44.5 -77q-42 -91 -43 -113q-1 -29 37 -37q21 -5 90 -5q52 0 131 3q92 2 147 2q60 0 78 -2q32 -6 33 -44 q0 -28 -12 -36q-22 -14 -169 -19q-38 -1 -143 -3q-80 -2 -138 -2q-105 0 -138 6q-62 11 -62 51z" />
<glyph unicode="F" horiz-adv-x="1107" d="M20.5 404.5q-0.5 30.5 13.5 51.5q21 21 70 158q87 243 121 361t34 175q0 38 4 59.5t16 38.5t33.5 21t56.5 7q12 1 25 1q27 0 61 -4q49 -4 105 -4q98 0 216 13q190 22 242 22h6q46 -2 58 -33q5 -16 6 -28.5t-10 -21.5t-28.5 -15.5t-49.5 -10.5t-74 -6.5t-101 -3.5 q-223 -3 -337 -38t-139 -108q-13 -39 -19.5 -60t-6 -40.5t7.5 -27.5t27.5 -14.5t45 -7.5t70.5 -2q74 -2 116 -2t50 2h3q16 0 58 -22q33 -17 33 -31q0 -19 -63 -30q-52 -10 -144 -13q-71 -3 -136.5 -14t-85.5 -22q-31 -19 -83 -151t-52 -192q0 -21 -35.5 -51t-65.5 -35 q-19 -3 -33.5 22.5t-15 56z" />
<glyph unicode="G" horiz-adv-x="903" d="M21 484q0 94 18.5 194.5t53.5 197t77 146.5q39 44 142.5 113t241.5 142q51 28 164 29q6 1 12 1q102 0 127 -25q26 -26 26 -101q0 -70 -23 -124q-23 -50 -60 -61q-9 -2 -19 -2q-28 0 -56 23q-20 17 -24 27t1.5 22.5t27.5 45.5l44 62l-49 6q-9 2 -20 2q-51 0 -135 -34 q-103 -41 -201.5 -106.5t-140.5 -123.5q-18 -26 -40 -76t-33 -91q-17 -70 -17 -156q0 -32 2 -66q9 -126 41 -148q56 -36 124 -36q35 0 73 9q113 28 213 128q93 92 93 129q0 9 -6 15q-14 12 -55 12q-17 0 -39 -2q-95 -7 -119 -22q-8 -5 -28 -2t-38 13q-40 21 -40 70q0 7 1 14 q2 20 6 29t11 17.5t29 12t47 7t79 7.5q135 10 187 20q24 7 49.5 1t45.5 -24.5t32 -39t10 -42.5t-21 -36q-14 -10 -27.5 -34.5t-18.5 -49.5q-25 -95 -154 -207t-236 -130q-71 -13 -129 -13q-55 0 -96 12q-86 25 -129 105q-24 46 -24 140z" />
<glyph unicode="H" horiz-adv-x="1009" d="M25 260q-6 11 -6 25q0 33 33 83q31 45 56 136q18 80 88 353q68 266 68 321q0 50 30 82q20 21 39 21l21 -6q15 -10 15 -45q0 -12 -2 -28q-7 -60 -50 -240q-31 -127 -31 -156q0 -8 2 -9q4 -4 65 -4t180 4l233 7l26 105q5 23 13 56t12.5 53.5t5.5 27.5q38 200 62 247 q12 23 18.5 29t15.5 5.5t36 -10.5q31 -11 34 -55v-9q0 -40 -23 -84q-32 -59 -68 -221q-28 -125 -29 -173q0 -15 3 -22q5 -17 2 -28.5t-11 -11.5q-13 0 -47 -140t-52 -267q-3 -44 -60 -44q-35 0 -44.5 12t-8.5 54q3 59 49 227l44 158h-106q-105 0 -130 -30 q-11 -13 -54.5 -27.5t-92.5 -21.5q-56 -6 -84 -15t-49 -37.5t-29 -69.5t-17 -124q-8 -74 -20.5 -99.5t-45.5 -39.5q-29 -11 -50 -11q-29 0 -41 22z" />
<glyph unicode="I" horiz-adv-x="811" d="M20 284q0 50 30 68q22 13 65 13q17 0 38 -2q10 -1 19 -1q36 0 50 10q16 12 36 71q53 153 106 361.5t53 263.5v79l-110 -11q-34 -3 -58 -3q-21 1 -33 3q-25 6 -33 27q-5 13 -5 24q0 29 34 43q48 19 207 27q207 7 211 16q5 5 73 9q48 3 57.5 -5.5t4.5 -49.5 q-5 -43 -20.5 -52.5t-80.5 -11.5q-95 -4 -102 -11q-8 -8 -44 -163q-27 -125 -77 -328q-46 -174 -46 -242q0 -30 9 -38q4 -2 27 -3t63 1t81 7q46 4 82 3q65 0 97 -12q36 -13 36 -44q0 -11 -5 -25q-8 -22 -63 -28.5t-228 -6.5q-278 0 -341 -33q-42 -21 -73 -21q-12 0 -23 3 q-37 12 -37 62z" />
<glyph unicode="J" horiz-adv-x="923" d="M20 496v6q0 65 32 86q24 15 45 15q16 0 31 -9q32 -21 32 -76q0 -72 54 -106q31 -20 65 -20q28 0 59 13q27 11 56.5 33.5t43.5 41.5q33 51 97.5 286t78.5 350l15 128l-64 -13q-106 -27 -136 -37q-48 -13 -77 -13q-16 0 -27 4q-26 10 -32 52.5t17 57.5q18 8 235 24 q217 13 254 33q30 17 52 17q21 0 35 -13q19 -18 19 -48q0 -21 -9 -48q-8 -26 -23.5 -32.5t-53.5 1.5q-43 8 -55.5 -3t-22.5 -68q-18 -111 -73.5 -338t-80.5 -294q-14 -36 -43 -83t-56 -77q-58 -64 -143 -87q-40 -11 -79 -11q-44 0 -86 14q-79 25 -123 92q-35 53 -37 122z " />
<glyph unicode="K" horiz-adv-x="1083" d="M23 172q-2 6 -2 17q-1 26 13 77q20 72 46 111q18 25 26 72q7 36 53.5 173.5t70.5 190.5q40 93 64 211q16 83 16 136q0 23 -3 40q-5 31 -5 51q0 12 2 20q5 21 27 35q24 13 40 13q25 0 30 -33q1 -9 1 -21q0 -67 -42 -234q-39 -154 -58 -214q-8 -25 -2.5 -29t31.5 11 q8 4 57 26.5t87.5 41.5t79.5 41.5t53 34.5q38 33 100 70q52 33 160 153.5t108 145.5q0 18 44 18t44 -34q0 -16 -10 -41q-39 -90 -181 -220q-86 -79 -185 -145q-33 -23 -70 -48t-56 -37.5t-20 -13.5q-2 0 2.5 -16t14 -43t21.5 -58q18 -49 31 -107t13 -94q0 -121 48 -195 q33 -51 70 -51q17 0 34 11q17 10 53.5 -20t36.5 -53q0 -33 -42 -50q-26 -11 -58 -11q-19 0 -39 4q-66 12 -100.5 43t-54 91.5t-34.5 182.5q-10 87 -17.5 131t-23.5 72t-36.5 34.5t-59.5 6.5q-28 0 -55.5 13.5t-37 30t0.5 29.5q12 16 0 16q-19 0 -63 -123t-76 -254 q-23 -95 -23 -132q0 -14 3 -20q11 -18 -23.5 -53t-64.5 -35q-11 0 -22.5 9t-16.5 22z" />
<glyph unicode="L" horiz-adv-x="796" d="M20 220q1 65 90 240q86 169 157.5 370t71.5 275q0 65 13 102q10 25 33.5 32.5t46 -5.5t28.5 -40q2 -6 2 -17q0 -57 -53 -226q-62 -200 -138 -365q-61 -134 -61 -169q0 -3 1 -5q5 -21 49 -13q8 2 18 2q50 0 132 -49q93 -53 151 -54h2q57 0 104 50q30 32 57 39.5t41 -11 t10 -57.5q-5 -55 -92 -103l-84 -49l-137 44q-149 49 -167 53q-14 5 -39.5 -6t-48.5 -33q-23 -20 -55.5 -37.5t-56.5 -20.5q-9 -1 -16 -1q-59 0 -59 54z" />
<glyph unicode="M" horiz-adv-x="1271" d="M21 308.5q3 38.5 23 99t60 158.5q67 164 142.5 357.5t75.5 204.5q0 4 -75 4q-66 0 -94 28q-19 19 -19 48q0 15 5 32q7 26 18.5 33.5t30.5 -0.5q56 -23 85 -23h5q28 2 68 34q29 24 41 33t24.5 8t19.5 -11t21 -37q18 -32 14.5 -59.5t-34.5 -87.5l-48 -97l97 101 q81 87 158 115q31 11 56 11q38 0 63 -25q31 -35 44 -147l11 -112l108 121q44 49 96 95t80 61q47 22 65 22h1q17 -1 47 -31q23 -22 32 -56.5t9 -99.5q-4 -117 -22 -139q-22 -30 -48 -103q-10 -29 -57 -144q-21 -50 -62 -180q-21 -74 -21 -100q0 -25 43 -63q50 -47 50 -91 q0 -14 -6 -28q-17 -43 -73 -50q-9 -1 -18 -1q-64 0 -125 55q-31 28 -38 98q-2 15 -2 29q0 47 20 67q22 25 105.5 220.5t119.5 306.5q28 84 28 124q0 37 -23 37h-4q-52 -5 -193 -170q-88 -103 -140 -200.5t-113 -273.5q-36 -107 -55 -139.5t-46 -29.5q-45 9 -54 22 q-5 8 -5 23q0 32 22 96q19 54 92 237q79 200 79 326q0 12 -1 23q-6 84 -54 84h-2q-15 -1 -33 -10q-57 -32 -148.5 -150.5t-122.5 -201.5q-18 -47 -89.5 -209t-93.5 -229q-17 -51 -32.5 -67.5t-48.5 -16.5t-47.5 15t-11.5 53.5z" />
<glyph unicode="N" horiz-adv-x="1511" d="M20 323v16q0 36 6 34l5 -5q8 -29 0 -55q-9 -19 -11 10zM148 181q2 41 21.5 79t44.5 46q39 11 110.5 174.5t132.5 380.5q66 232 66 251q-1 6 -31 10q-24 3 -55 3h-18q-20 -1 -36 -1q-42 0 -54 6q-16 8 -16 46q0 35 11 44t47 4q7 -1 14 -1q21 0 51 6q42 8 76 22 q81 35 101 35q8 0 27 -29t37 -70q35 -75 41 -161q4 -49 3 -167q0 -91 -2 -223q-1 -39 -1 -73q0 -221 23 -221q18 1 55 123q33 115 163 381q100 202 194 313.5t189 141.5q2 1 6 2q40 13 53.5 17.5t28.5 4t19 -4.5t16 -19l2 -2q23 -28 23 -75q0 -16 -2 -33q-10 -70 -49 -77 q-17 -3 -35.5 4.5t-26.5 22.5q-8 14 -20.5 24.5t-21.5 10.5q-23 0 -98.5 -58t-75.5 -76q0 -26 -90 -181q-38 -69 -86 -180t-77 -199q-102 -313 -160 -379q-23 -26 -47 -26q-23 0 -47 23l-4 4q-32 32 -60 278q-18 159 -17 263q0 57 5 97q5 45 5 66q0 19 -4 19 q-18 0 -122 -351q-56 -186 -85 -255.5t-56 -79.5q-14 -4 -34 -4q-28 0 -68 9q-66 16 -66 35z" />
<glyph unicode="O" horiz-adv-x="929" d="M25 311q-5 17 -5 41q0 129 135 450q68 164 124 253.5t153 193.5q66 71 100 77q3 1 7 1q29 0 52 -50q17 -33 37 -41q12 -5 36 -5q15 0 35 2q17 2 32 2q109 1 151 -87q29 -59 28 -162q0 -69 -13 -158q-24 -146 -65 -233.5t-144 -202.5q-93 -107 -178 -149t-216 -43h-23 q-220 0 -246 111zM153 353q6 -17 41 -31q31 -13 86 -13q66 0 168 19q41 8 87 49t115 132q58 73 100 160q32 66 31 93q0 8 -3 13q-4 7 -4 22q0 27 13 82q12 56 12 99q0 64 -27 98q-31 38 -96 38q-32 0 -72 -9q-39 -8 -66 -8q-34 0 -49 13q-9 8 -19 8q-20 0 -42 -27 q-34 -41 -97 -168q-59 -119 -109 -261t-65 -233q-6 -37 -7 -57q1 -13 3 -19z" />
<glyph unicode="P" horiz-adv-x="878" d="M26 245q-5 9 -5 28q0 53 39 184q23 75 67 208q113 351 124 454q10 81 20.5 102t43.5 21q20 0 46 13.5t44 32.5q43 51 122.5 87.5t165.5 36.5q93 0 131 -50q36 -46 36 -148q0 -8 -1 -16q-2 -94 -49 -205.5t-117 -194t-134 -98.5q-28 -7 -70 -7q-27 0 -60 3q-84 7 -125 26 q-20 8 -36 -17.5t-39 -105.5q-36 -126 -51 -229q-7 -53 -21 -77.5t-45 -39.5q-40 -18 -62 -18q-17 0 -24 10zM361 830q37 -28 96 -28q9 0 19 1q72 5 118 43q73 56 115 168q38 101 38 209q0 13 -1 26q-2 38 -12.5 48.5t-48.5 10.5q-245 -3 -329 -324q-22 -84 -22 -109.5 t27 -44.5z" />
<glyph unicode="Q" horiz-adv-x="1042" d="M22 400q-1 7 -1 13q0 79 27 170q30 99 86.5 209.5t127.5 208.5t158.5 180t172.5 125t139 43q2 0 4 -1q54 -1 132 -51q133 -84 150 -209q3 -20 3 -42q0 -117 -76 -302q-94 -224 -121 -282t-44 -68q-13 -10 -13 -35q0 -15 4 -35q11 -40 2.5 -47t-61.5 0q-18 3 -36 3 q-59 0 -116 -31q-70 -37 -155 -51q-23 -3 -49 -3q-61 0 -142 17q-117 25 -150 59q-40 45 -42 129zM165 570q-14 -59 -14 -105q0 -77 40 -117q42 -42 126 -42q43 0 97 11q47 10 91.5 26t62.5 29q29 22 29 43t-26 100q-26 75 -26 117q0 12 3 22q7 34 45 34q7 0 15 -1 q30 -3 43.5 -23t24.5 -76q7 -39 18.5 -67t19.5 -28q18 0 66 128q51 133 103 222q33 58 41 95q5 18 5 42q0 22 -4 48q-7 39 -21 76.5t-29 53.5q-27 33 -81 39q-9 1 -18 1q-38 0 -51 -22t-55 0q-2 1 -5 3q-34 18 -47 16q-12 -2 -53 -27q-12 -8 -19 -12q-55 -33 -162 -167.5 t-155 -230.5q-42 -88 -64 -188z" />
<glyph unicode="R" horiz-adv-x="907" d="M22 230q0 3 -1 6q0 26 11 65q12 44 39 117q168 462 192 560q29 109 66 271q7 37 30.5 52.5t47.5 2.5t34 -49q6 -27 6 -45q0 -21 -8 -32q-16 -27 0 -25q26 5 84 63l4 4q77 80 169 80h12q100 -6 149 -100q30 -57 30 -99q1 -7 -1 -15q-6 -46 -64 -137q-38 -63 -76.5 -96.5 t-110.5 -66.5q-119 -54 -119 -64q0 -15 46 -178q40 -147 75.5 -198t98.5 -51q60 -1 88 -33q14 -16 14 -33t-14 -35q-21 -23 -75 -23q-19 0 -42 3q-89 11 -130 51q-15 17 -44 86.5t-55 153.5q-66 204 -121 246l-55 44l-68 -213q-67 -197 -84 -280q-7 -40 -20.5 -55t-45.5 -18 q-31 -3 -45.5 5.5t-16.5 35.5zM384 898q0 -28 35 -41q24 -9 56 -9q15 0 31 2q52 6 98 29q50 25 113 105.5t63 118.5q0 36 -46 49q-18 5 -37 5q-30 0 -64 -12q-53 -18 -151 -115.5t-98 -131.5z" />
<glyph unicode="S" horiz-adv-x="876" d="M23 412q-3 15 -3 28q0 45 28 82q23 26 50.5 20.5t51.5 -43t28 -87.5q5 -54 18.5 -72t56.5 -29q25 -7 48 -7q15 0 29 2q37 8 104 42q94 48 142 116q41 58 41 117q0 11 -1 21q-9 70 -75 120q-74 58 -107 58q-48 0 -99 52t-51 100q0 112 70 230.5t159 158.5q44 20 101 20 q16 1 32 -1q78 -6 149 -45q35 -18 48 -39.5t13 -59.5q0 -68 -36 -78q-6 -2 -11 -2q-32 0 -74 47q-49 54 -116 56h-6q-63 -1 -117 -45q-56 -46 -78 -124q-10 -35 -10 -64q0 -83 83 -105q55 -12 132 -60q45 -26 63.5 -54t28.5 -82q11 -61 10 -104q0 -17 -1 -31 q-6 -50 -42 -134q-25 -55 -60 -86t-125 -77q-132 -66 -218 -66q-9 1 -17 1q-90 8 -170 98q-58 64 -69 126z" />
<glyph unicode="T" horiz-adv-x="919" d="M21 1197.5q2 29.5 20 57.5q29 43 51 49q4 1 8 1q22 0 57 -21q21 -13 104 -14h16q83 0 237 9q225 14 304 14q36 0 42 -3q22 -7 34 -42q6 -19 6 -35q0 -15 -5 -28q-7 -19 -104 -19q-37 0 -87 3q-85 5 -128 5q-28 0 -38 -2q-21 -6 -29 -30q-2 -4 -4 -12q-60 -211 -114 -454 q-34 -166 -64 -236q-33 -81 -33 -145q0 -38 -11.5 -57.5t-43.5 -34.5q-25 -12 -45 -12q-12 0 -22 4q-28 11 -43.5 34t-8.5 56.5t37 60.5q41 36 133 354t92 421q0 43 -12 49q-4 2 -13 2q-18 0 -54 -7q-77 -12 -132 -46q-27 -18 -56 -19.5t-49.5 12t-33.5 35t-11 51z" />
<glyph unicode="U" horiz-adv-x="1183" d="M21 1130q0 2 1 6q5 33 25 42.5t94 12.5q119 8 187 40q60 26 100 26q38 -1 58 -23q16 -18 16 -45q0 -43 -39 -108q-60 -98 -119 -266.5t-75 -288.5q-6 -50 -22 -136q-4 -26 -4 -48q-1 -48 19 -74q23 -30 70 -30q12 0 27 2q147 18 304.5 231.5t301.5 589.5q28 74 49 117 t41.5 63.5t38.5 18t40 -24.5q23 -23 16 -59t-62 -165q-77 -185 -103 -399q-11 -95 -14 -146q-1 -18 -1 -34q0 -29 4 -50q6 -33 22 -35t44 1q11 3 22 2q30 0 60 -18q42 -26 41 -59q0 -38 -48 -63q-38 -20 -84 -20q-13 0 -27 2q-89 10 -122 51t-47 156l-13 127l-73 -121 q-94 -154 -199.5 -218t-276.5 -72h-10q-87 0 -123 50q-29 41 -29 123q0 24 2 51q14 132 52 298t73 242q62 134 62 182q0 8 -2 14q-1 9 -43 13q-29 3 -66 3q-17 0 -35 -1q-32 -1 -56 -1q-56 0 -66 5q-14 6 -11 36z" />
<glyph unicode="V" horiz-adv-x="1206" d="M20 1154q0 38 19 48t107 18q51 5 97 17t57 23q25 25 68 25h9q49 -3 60 -34q6 -15 6 -59q0 -36 -4 -91q-9 -123 -35 -288q-21 -139 -21 -210q0 -75 23 -75h1q3 0 5 1q11 3 65 62t116 138q182 220 244 282q97 107 172 218q64 99 102 117q9 4 18 4q27 0 48 -42q6 -12 6 -26 q-1 -28 -25 -64q-38 -54 -243 -284q-70 -80 -227 -265q-254 -300 -316 -362q-48 -47 -78 -47q-9 0 -16 4q-23 16 -28 52q-2 18 -2 53.5t2 88.5q7 158 33 300q25 117 33 253l6 123l-86 -15q-65 -15 -149 -20q-41 0 -54 10.5t-13 44.5z" />
<glyph unicode="W" horiz-adv-x="1435" d="M34 1225q20 20 71 20q14 0 30 -1q33 -2 55 3t22 15q0 23 51.5 23t74.5 -23q14 -14 14 -36q0 -17 -8 -39q-11 -29 -26 -101.5t-33 -169t-20 -108.5q-9 -44 -14 -132q-4 -73 -5 -133q0 -12 1 -24q1 -70 7 -70q38 0 88 88q67 116 178 346.5t111 252.5q0 38 35 61 q24 16 50 16q12 0 25 -4q35 -11 39 -51q1 -12 2 -38q0 -63 -8 -211q-6 -121 -8 -201q0 -19 -1 -33q0 -48 4 -50q14 0 102 131t127 211q45 83 62 187q16 100 37 128q21 24 46 24q32 0 69 -40q22 -24 46 -31q12 -4 28 -3.5t36 3.5q41 7 60 1.5t26 -25.5q8 -21 8 -38 q0 -21 -12 -36q-22 -27 -78 -27q-98 0 -139 -25t-76 -105q-25 -62 -161.5 -278.5t-162.5 -283.5q-45 -101 -86 -101q-24 0 -39 6.5t-25 26.5q-11 19 -13 49q-1 12 0 27q0 24 2 56q4 54 13.5 121.5t26.5 167.5q6 41 6 64q0 33 -12 33q-4 0 -9 -3q-35 -24 -120 -191 q-120 -226 -165 -280q-58 -65 -94 -125q-32 -49 -86 -60q-12 -2 -21 -2q-36 0 -48 31q-5 12 -5 48q0 84 24 302q34 312 70 473q8 36 -2 42q-4 2 -14 2q-17 0 -51 -6q-32 -6 -52 -6q-13 0 -20 3q-17 7 -33 45q-13 29 -13 50t13 34z" />
<glyph unicode="X" horiz-adv-x="1011" d="M100 335q69 69 114.5 123t140.5 178q52 68 62 95q8 22 8 55q0 37 -10 90q-9 45 -45 199q-20 81 -30 147q-7 44 -7 64q0 10 2 15q7 14 25 21t37 4q30 -3 43 -22.5t21 -72.5q18 -114 42.5 -221.5t34.5 -117.5q5 -5 20 7t30 35q74 110 195 248.5t147 143.5q15 3 27 3 q34 0 34 -28v-2q-3 -44 -79 -123q-127 -133 -235 -284.5t-108 -195.5q0 -77 28.5 -217t50.5 -173q13 -18 22 -51t9 -63q0 -47 -9.5 -60t-45.5 -13q-94 0 -130 244q-29 189 -41 202q-7 9 -23 -19q-32 -54 -139 -176q-46 -54 -84.5 -109.5t-45.5 -75.5q-8 -26 -23.5 -34.5 t-48.5 -5.5q-68 8 -68 58q0 56 79 132z" />
<glyph unicode="Y" horiz-adv-x="831" d="M23 1274q6 37 39 49q6 3 13 3q21 0 47 -28q24 -24 24 -43q0 -8 -5 -15q-1 -3 -1 -9q0 -32 36 -152q28 -84 48 -115t53 -39q15 -4 30 -4q57 0 120 55q79 68 212 266q87 129 134 129q5 0 10 -2q27 -12 27 -50t-120 -193q-128 -163 -234 -258q-36 -32 -68 -70.5t-40 -61.5 q-25 -60 -53.5 -218.5t-28.5 -240.5q-1 -59 -12 -79.5t-47 -34.5q-52 -22 -75 -22q-22 0 -27 55q-1 12 -1 24q0 43 13 86q26 108 46 212q9 43 12.5 60.5t3.5 52t-1.5 47t-15 63t-24 82t-39.5 120.5q-48 146 -65 221q-13 55 -13 89q0 12 2 21z" />
<glyph unicode="Z" horiz-adv-x="917" d="M27 306q15 34 96 115q99 99 147 169q121 166 181 229q22 22 66 110q35 77 51 93q16 13 52 68t36 66q-8 9 -60 7t-132.5 -15t-133.5 -29q-61 -18 -97 -18q-17 1 -29 5q-29 10 -29 51q0 8 1 17q2 17 4 24.5t10 16t23 11.5t42.5 7t68.5 6.5t101 6.5h2q250 20 297 38 q51 21 77 21q2 -1 3 -1q25 -2 61 -27q28 -19 30.5 -35.5t-15.5 -52.5q-10 -23 -26.5 -40t-28.5 -17q-28 0 -85 -61.5t-97 -134.5q-50 -87 -86 -139.5t-161 -219.5q-159 -216 -159 -227q0 -6 28 -6q3 0 6 -1q25 1 63 5q42 4 85 10.5t78 15.5t44 16t18 7q18 1 40 -23 q33 -36 35 -83q0 -37 -40 -59q-21 -11 -40 -11q-18 0 -33 10q-31 19 -103 19q-82 0 -218 -25q-84 -15 -115 -15h-4q-30 1 -44 21q-16 26 -16 49q0 13 6 26z" />
<glyph unicode="[" />
<glyph unicode="\" horiz-adv-x="528" d="M27 1114q62 115 121 -119q4 -13 7 -28q25 -105 136.5 -332.5t162.5 -277.5q51 -48 53.5 -96.5t-46.5 -60.5q-44 -11 -64 0t-20 47q0 17 -17.5 60t-41.5 87q-103 207 -185 394q-79 172 -100 236t-6 90z" />
<glyph unicode="]" />
<glyph unicode="a" horiz-adv-x="792" d="M20 324q0 36 104.5 240t142.5 244q53 53 104 86q25 16 53 23.5t46 2.5q32 -13 127 -13h10q44 -1 64 -9q22 -10 37 -41q10 -23 9 -47q1 -11 -1 -22q-6 -35 -44 -119q-23 -57 -44 -131t-26 -122q-4 -34 -6 -50t-1.5 -34t2.5 -23.5t10 -14t16.5 -12t26.5 -9.5 q26 -10 55 -28.5t44 -35.5q26 -28 21.5 -37t-54.5 -27q-55 -20 -81.5 -22t-48 11t-59.5 53l-64 71l-68 -58q-55 -46 -131 -68q-42 -12 -77 -12q-27 0 -50 8q-31 10 -74 82t-43 114zM136 319q4 -27 35.5 -55t49.5 -27t79 34q31 18 52.5 35t38 39.5t26 38.5t26.5 49.5t29 55.5 q40 79 50 165q3 22 3 41q0 51 -22 65q-24 15 -49 15q-38 0 -80 -33q-70 -56 -155 -211q-51 -97 -69 -141q-14 -35 -14 -59q-1 -6 0 -12z" />
<glyph unicode="b" horiz-adv-x="759" d="M20 332q0 35 50 80q43 38 98.5 193.5t95.5 340t40 298.5q0 65 22 117q17 47 47 55q6 2 11 2q24 0 47 -28q13 -17 8.5 -59t-28.5 -133q-41 -164 -41 -225q0 -43 9 -50.5t52 2.5q63 17 102 35q15 8 29 8q39 0 82 -54q58 -74 80 -196q14 -72 14 -119q0 -21 -4 -39 q-10 -52 -72 -192q-35 -81 -138 -136t-240 -65q-43 -3 -62 -4t-43 0.5t-32 4.5t-22.5 12.5t-22.5 19t-25 29.5q-57 67 -57 103zM233 350q-3 -42 5.5 -56t40.5 -17q13 -2 27 -1q62 0 134 36q90 45 128 111q52 83 62 199q2 24 2 46q0 79 -31 112q-38 42 -90 42h-5 q-54 -2 -101 -49q-41 -41 -102.5 -192t-69.5 -231z" />
<glyph unicode="c" horiz-adv-x="614" d="M25 254q-4 18 -4 40q0 112 102 318q71 144 132 221.5t134 117.5q50 27 79 27q32 0 70 -53t38 -97q0 -40 -28 -67q-27 -25 -61 -25h-5q-36 2 -55 35q-13 23 -26.5 24.5t-44.5 -15.5q-41 -22 -116 -173.5t-93 -249.5q-5 -25 -5 -43q0 -42 22 -54q15 -8 47 -8q37 0 97 12 q60 11 87.5 28.5t44.5 53.5q38 77 81 77q22 0 46 -20q27 -23 27 -63q0 -10 -2 -20q-8 -55 -49 -78q-39 -21 -55 -37q-18 -22 -104.5 -43t-159.5 -21q-175 1 -199 113z" />
<glyph unicode="d" horiz-adv-x="974" d="M25 294q-4 16 -4 36q0 38 13 91q26 108 63 175.5t117 154.5q71 78 162.5 130.5t154.5 52.5q27 0 47.5 -20.5t45.5 -72.5q30 -68 45 -68h2q4 1 6 7q3 12 33 110q3 10 61 231q15 63 32 117t26 66q22 25 49 25t52 -25t25 -61q0 -7 -1 -15q-6 -46 -42 -70q-18 -11 -31 -31 t-13 -37q0 -30 -22 -58t-22 -59q0 -51 -31 -158q-103 -358 -111 -439q-1 -12 -1 -22q0 -45 25 -52q16 -4 54 4t57.5 -1t42.5 -43q23 -35 23 -58q0 -44 -84 -45q-45 0 -111 13q-36 7 -66 23t-40 34q-16 31 -45 31q-36 0 -91 -46q-36 -31 -180 -34h-25q-122 0 -154 27 q-51 41 -62 87zM113 355l51 -42q35 -28 88 -28q71 0 176 50q69 33 102.5 95.5t36.5 164.5q1 14 1 26q0 41 -8 62q-10 27 -44 53q-57 44 -86 44q-41 0 -142 -117t-133 -201z" />
<glyph unicode="e" horiz-adv-x="722" d="M24 348q10 107 65 226.5t134 208t153 111.5q36 11 93 11q30 0 66 -3q104 -9 134 -34q32 -26 32 -62q0 -14 -6 -32q-20 -56 -112 -149q-71 -72 -127.5 -107.5t-154.5 -70.5q-131 -47 -159 -83q-10 -13 -9 -28q0 -29 34 -67q25 -29 55 -35q17 -4 49 -4q25 0 59 3 q48 3 111 19.5t100 35.5q59 32 90 32q16 0 25 -9q24 -24 24 -48q0 -29 -35 -58q-74 -62 -243 -81q-30 -4 -61 -5q-44 -3 -78 -3q-56 0 -88 8q-51 12 -98 52q-42 40 -51 68q-5 16 -5 47q0 24 3 57zM204 544q4 -4 13 -4q27 0 93 33q90 44 175 103.5t85 83.5q0 14 -42 18 q-12 1 -24 1q-32 0 -72 -6q-54 -9 -87 -26q-45 -25 -101 -106q-44 -63 -44 -87q0 -6 4 -10z" />
<glyph unicode="f" horiz-adv-x="940" d="M21 97q-3 23 5 52t22 47q22 28 35.5 30.5t43.5 -15.5q23 -14 44 -14q16 0 30 8q33 19 67 88q32 62 58 185q19 94 19 149q0 17 -2 31l-7 67l-33 -67q-20 -38 -40.5 -52t-58.5 -14q-47 0 -56 12q-8 12 -8 61v11q6 160 159 174q53 5 69.5 19t31.5 65q23 86 85 171.5 t127 121.5q79 42 83 61q5 15 45 15q21 0 53 -5q90 -12 107 -38q21 -32 21 -65q0 -20 -8 -40q-17 -42 -51 -42q-19 0 -37 15q-26 18 -59 19h-3q-32 0 -68 -17q-38 -18 -72 -45.5t-61 -67t-39 -81.5q-18 -66 -18 -87q0 -4 1 -6q4 -15 39 -23q7 -1 27 -5q18 -3 34 -3 q46 0 76 27q25 22 51 22q13 0 27 -6q39 -17 39 -67q0 -40 -58.5 -68.5t-144.5 -28.5h-29t-23 -2.5t-19 -3.5t-14 -9.5t-11.5 -14t-8.5 -22.5t-7.5 -29.5t-5.5 -41t-6 -50.5t-6 -64q-7 -66 -20 -122.5t-24 -67.5q-32 -38 -42 -81q-17 -65 -94 -110q-67 -39 -140 -39 q-11 0 -23 1q-61 5 -79 15.5t-23 46.5z" />
<glyph unicode="g" horiz-adv-x="800" d="M26 64q-7 29 -7 55q0 46 20 83q31 60 98 60q66 0 89 -57q8 -19 8 -37q0 -36 -31 -69q-26 -31 -26.5 -40t24.5 -19q24 -9 46 -9q34 0 63 21q48 35 100 142q68 142 68 152q0 6 -27 6t-81 -6q-52 -6 -91 -6q-51 0 -79 10q-49 19 -68 88q-13 40 -13 80q0 109 90 224 q83 103 156.5 151.5t183.5 71.5q84 17 119 17q1 1 2 1q34 0 61 -16q50 -31 50 -98.5t-50 -172.5q-48 -98 -95.5 -254t-47.5 -211q0 -48 -56 -137t-122 -147q-82 -71 -162 -71q-72 0 -142 58q-62 51 -80 130zM258 482q14 -16 49 -16q21 0 51 6q76 16 122 57q48 43 79 115 q22 52 22 86q0 14 -4 25q-14 47 -59 47q-14 0 -31 -5q-75 -19 -148 -106q-36 -43 -61 -92q-29 -56 -29 -88q0 -18 9 -29z" />
<glyph unicode="h" horiz-adv-x="796" d="M20 210q0 54 61 149q68 105 68 117q0 16 70 163q79 174 136.5 344.5t57.5 232.5q0 68 22 116q22 38 55.5 40.5t48.5 -33.5q4 -10 4 -25q0 -22 -9 -60q-15 -62 -79 -267q-37 -119 -37 -142v-3q2 -15 34 -1l23 11q87 46 127 50h7q35 0 66 -32q47 -46 47 -162v-3 q0 -115 -45 -243q-19 -50 -29.5 -95.5t-7.5 -55.5t24.5 -17.5t48.5 -9.5q42 0 52.5 -11.5t10.5 -54.5q0 -44 -12 -56t-62 -17q-15 -2 -30 -2q-54 0 -107 20q-61 25 -63 95v4q0 70 56 231q47 134 47 199q0 50 -28 60q-6 2 -13 2q-45 0 -135 -82q-76 -72 -129.5 -162.5 t-104.5 -236.5q-28 -81 -45.5 -101t-60.5 -20q-69 0 -69 58z" />
<glyph unicode="i" horiz-adv-x="452" d="M22 380q8 72 84 197q35 58 68.5 128.5t43.5 107.5q23 84 46 116q19 21 38 21l52 -41q3 -5 3 -15q0 -52 -86 -229q-80 -165 -90 -234q-2 -11 -2 -22q0 -53 43 -79q25 -15 42.5 -7.5t48.5 47.5l50 62l38 -51q32 -46 32 -74q-1 -7 -3 -13q-10 -29 -84 -65q-68 -36 -128 -36 q-81 0 -150 65q-48 42 -48 103q1 9 2 19zM286 1260q22 23 45 23q9 0 19 -4q32 -13 37 -61q1 -5 1 -10q0 -42 -36 -82q-29 -33 -51 -32q-9 0 -17 5q-24 14 -24 71q0 64 26 90z" />
<glyph unicode="j" horiz-adv-x="737" d="M27 13q-7 44 -7 83q0 70 24 121q24 49 56 49q9 0 19 -4q13 -4 25 -15q18 -15 22 -44q1 -10 1 -23q0 -26 -5 -65q-5 -36 -5 -60q0 -33 9 -41q4 -4 9 -4q18 0 55 36q61 64 158 333t115 429q7 61 20 114t24 67q17 21 33 21q15 0 28 -17q27 -35 27 -117q0 -116 -71 -382.5 t-136 -394.5q-52 -100 -119 -161t-123 -61q-73 0 -110.5 32t-48.5 104zM568 1189q0 38 27 71q25 25 46 25q7 0 13 -2q25 -10 47 -63q17 -40 17 -70q0 -13 -4 -25q-11 -37 -52 -37q-39 0 -66.5 31.5t-27.5 69.5z" />
<glyph unicode="k" horiz-adv-x="735" d="M26 328q14 58 77 198q27 58 78.5 236t59.5 240q8 36 25 59q7 11 28 148t38 148q30 20 58 4.5t35 -49.5q2 -12 2 -24q0 -24 -9 -50q-20 -38 -58 -173t-64 -255q-19 -87 -20 -110q0 -9 3 -9q19 0 189 166q68 67 127.5 116t70.5 49t24.5 -14.5t20.5 -34.5q8 -30 -5.5 -52.5 t-65.5 -63.5q-69 -53 -178 -155l-95 -88l31 -103q13 -41 36.5 -90t42.5 -77q39 -53 39 -93v-7q-4 -42 -54 -61q-17 -6 -33 -6q-29 -1 -49 21q-32 34 -44 121q-15 91 -39 132.5t-62 41.5q-35 0 -49.5 -38.5t-21.5 -148.5q-3 -53 -13.5 -72.5t-38.5 -22.5q-18 -3 -41 5.5 t-34 23.5q-15 20 -15 51q-1 16 4 37z" />
<glyph unicode="l" horiz-adv-x="428" d="M26 258q-5 30 -5 57t5 51q10 49 52 149q55 128 102.5 299.5t65.5 306.5q13 116 24 150q5 15 18 26t24 11q36 0 58 -50q13 -30 12 -59q0 -20 -6 -41q-16 -58 -20 -81q-70 -325 -148 -568q-43 -136 -50 -180.5t13 -57.5q29 -18 49 -17.5t70 23.5q35 16 53 14t41 -25 q24 -24 24 -47q0 -17 -14 -33q-32 -37 -135 -63q-56 -14 -98 -14q-43 -1 -69 15q-51 30 -66 134z" />
<glyph unicode="m" horiz-adv-x="1236" d="M21 251q-2 29 4.5 63.5t17.5 53.5q30 61 55 169q10 36 24.5 95.5t17.5 69.5q25 92 25 117q-1 3 -1 5q-4 19 -51 26q-50 5 -69 46q-9 19 -9 41q0 26 12 56q7 16 13.5 20.5t17.5 0t35 -20.5q37 -26 89 -26q20 0 43 4q29 4 46 4q16 1 22 -3q12 -8 12 -52q-4 -68 -33 -118 q-30 -52 -30 -65q0 -5 4 -5q18 1 118 92q72 60 112 84q36 21 64 21h7q36 -5 47.5 -24t18.5 -86l11 -106l97 100q83 87 139 97q8 2 16 1q46 0 81 -54q33 -51 33 -150.5t-33 -162.5q-39 -74 -39 -158q0 -11 1 -23q2 -20 27 -20q11 0 27 4q60 16 103 62l2 3q23 30 38.5 34.5 t40.5 -10.5q16 -10 28 -32.5t12 -44.5q0 -48 -72 -86.5t-186 -52.5q-39 -5 -63 -5q-16 1 -26 3q-24 6 -39 31q-22 40 -22 110q-1 17 1 36q6 96 43 164q18 36 31 81t13 73q0 45 -8.5 56t-39.5 6q-54 -7 -134.5 -123.5t-143.5 -279.5q-48 -121 -70 -154t-55 -33q-52 1 -66 45 q-5 14 -4 29q0 33 21 74q60 113 93 217q29 90 29 149q0 9 -1 17l-6 88l-88 -75q-70 -61 -134 -174t-108 -253q-25 -78 -41 -97.5t-56 -19.5q-38 0 -49.5 12t-14.5 54z" />
<glyph unicode="n" horiz-adv-x="970" d="M21 884q5 46 30 63q5 3 13 4q18 0 49 -17q18 -9 43 -8q35 0 85 17q81 30 125 30q25 -1 37 -11q17 -14 17 -56q0 -38 -14 -100q-15 -66 -14 -93q0 -20 7 -20q11 0 36 36q28 39 75.5 76t99.5 63q53 26 104 42q46 14 84 15q4 -1 7 -1q40 -2 57 -21q19 -23 19 -64 q0 -19 -4 -42q-13 -73 -61 -161q-54 -107 -75 -180q-18 -58 -17 -82q0 -24 21 -46q24 -23 38.5 -21t54.5 34q41 31 53.5 32t31.5 -25q30 -40 30 -72q-1 -28 -23 -50q-36 -37 -109 -38q-23 0 -49 4q-144 20 -162 124q-3 16 -3 34q0 102 87 284q26 56 39 86.5t18 50t1 25.5 t-16 6q-33 0 -110 -45t-134 -96q-43 -39 -117.5 -152t-91.5 -163q-15 -48 -46 -72q-20 -15 -41 -15q-11 0 -23 5q-48 18 -48 72q0 56 50 133q62 99 64 110q0 9 26 75q17 39 23 79q3 19 3 35q1 16 -3 30q-6 26 -23 26q-27 0 -115 -25q-49 -13 -71 -13h-5q-20 2 -38 24 q-16 22 -16 57q0 8 1 17z" />
<glyph unicode="o" horiz-adv-x="710" d="M24 306q25 190 97 312t277 318q17 17 39 29.5t34 12.5q40 0 123 -95t93 -154q3 -18 3 -39q0 -74 -39 -198q-51 -160 -112 -232q-69 -79 -169 -121q-76 -32 -145 -32q-21 0 -42 3q-105 16 -137 56q-24 30 -25 94q0 21 3 46zM158 240l104 2q107 0 172.5 64t113.5 216 q33 104 36 136v8q0 28 -18 63q-31 55 -56 62q-5 2 -13 2q-28 0 -85 -20q-79 -27 -159 -148q-52 -77 -68.5 -124t-19.5 -129z" />
<glyph unicode="p" horiz-adv-x="888" d="M22 -86q-2 5 -2 11q0 41 41 132q84 189 90 366q1 21 10 40t19 26q20 14 46.5 73t26.5 90q0 10 -18 13t-46 -2q-17 -4 -33 -4q-39 0 -77 24q-27 19 -38.5 42.5t-5.5 42.5t22.5 33.5t43.5 15t59 -12.5q28 -14 46 -14q8 0 15 2q21 10 73 73q47 57 67.5 69t47.5 -2 q39 -20 39 -52q0 -33 -44 -133q-36 -81 -36 -106q0 -6 3 -9q9 -9 25 25l8 19q8 22 37.5 55.5t62.5 59.5q52 40 86 49q18 4 48 4q26 0 59 -3q106 -11 139 -53t33 -165q0 -79 -13 -122t-57 -109q-51 -75 -91.5 -107.5t-97.5 -44.5q-49 -9 -137 -9h-31l-176 5l-29 -84 q-31 -99 -37 -159q-10 -74 -29 -95t-75 -21q-67 0 -74 37zM334.5 362.5q4.5 -12.5 23 -21t47.5 -11t77 -2.5q66 0 103.5 9.5t63.5 34.5q64 58 93 141q22 60 22 125q0 24 -3 49q-1 26 -85 26t-117 -26q-15 -11 -57 -60.5t-84 -106.5q-33 -43 -52 -71t-27.5 -51t-4 -35.5z" />
<glyph unicode="q" horiz-adv-x="921" d="M26 412q26 142 147 306q107 145 221 215q80 49 143 49q28 0 52 -9q34 -13 64 -13h7q34 2 92 24q45 16 70.5 22.5t43 4.5t24 -12t10.5 -32q7 -33 -20.5 -55t-76.5 -22q-31 0 -44 -29t-33 -141q-31 -197 -33 -227q-1 -44 -77 -278.5t-106 -291.5q-15 -27 -40 -36.5 t-79 -9.5q-71 2 -72 11q-1 5 13 17q26 22 68 104t42 112q0 16 -32 16q-17 0 -45 -5q-39 -8 -77 -8q-41 0 -82 10q-78 17 -128 64q-58 53 -58 147q0 31 6 67zM28 -46q-2 12 -2 22q0 44 33 70q31 23 65 26.5t55 -10t30.5 -38.5t-9.5 -59q-10 -18 -13 -38.5t4 -30.5 q10 -17 -39 -16q-14 0 -32 1q-58 5 -72.5 17t-19.5 56zM158 338q4 -41 26 -58q20 -20 117 -38q31 -4 53 -4q20 0 32 4q25 7 58 40q49 52 86 164t42 226q1 30 1.5 42t-0.5 30.5t-1.5 23.5t-5 14.5t-7.5 11t-13 5.5t-16.5 4.5t-23.5 2.5q-15 2 -29 2q-25 0 -45 -8 q-31 -13 -85 -62q-42 -37 -79.5 -90.5t-62 -109.5t-38.5 -108q-11 -39 -11 -72q0 -11 2 -20z" />
<glyph unicode="r" horiz-adv-x="714" d="M23 222q-3 13 -3 28q0 61 46 162q44 99 84 235.5t40 189.5q0 57 29 91q21 25 46 25q9 0 19 -4q22 -9 22 -53q0 -15 -2 -33l-9 -72l73 70q31 29 68.5 56t61.5 37q53 21 84 21q3 -1 7 -1q32 -2 67 -34q32 -28 38 -72q1 -11 1 -25q0 -41 -12 -105q-8 -40 -22 -54.5 t-44 -14.5q-43 -1 -71 39q-18 26 -18 52q0 14 5 28q15 36 -20 36q-33 0 -111 -91t-85 -136q-3 -20 -20.5 -42t-40.5 -33q-47 -23 -66 -71.5t-20 -151.5q-2 -58 -11.5 -79.5t-39.5 -32.5q-26 -9 -45 -9q-41 0 -51 44z" />
<glyph unicode="s" horiz-adv-x="628" d="M24 362q-5 27 -4 50q0 38 14 59q14 20 33 20q14 -1 30 -11q38 -26 45 -81q6 -55 70 -82q36 -15 66 -15q19 0 37 6q44 16 93 80q32 38 38 59.5t-7 43.5q-16 26 -33 32.5t-79 11.5q-55 3 -88 39q-31 34 -31 85v6q2 66 49 156.5t103 134.5q38 30 82 36q15 2 29 2q29 0 53 -9 q36 -13 60.5 -45t24.5 -75q0 -64 -27 -74q-5 -2 -11 -2q-25 0 -64 37q-37 35 -67 35q-8 0 -16 -3q-36 -12 -77 -83q-23 -41 -23 -69q0 -59 106 -59q75 0 105 -34t30 -120q0 -102 -86 -206t-170 -106h-14q-68 -1 -129 17q-67 20 -95 51q-35 37 -47 113z" />
<glyph unicode="t" horiz-adv-x="577" d="M21 754q0 28 65 51q12 4 26 8q84 18 106 35q5 7 78.5 209t77.5 209q12 19 28 19q19 0 45 -28q12 -16 12 -42q0 -16 -5 -37q-12 -53 -69 -194q-30 -77 -30 -101q0 -9 4 -11q9 -6 46 18q15 10 29 10q17 0 32 -16q27 -28 27 -85q0 -46 -13.5 -54.5t-83.5 -8.5h-95l-70 -166 q-59 -141 -65 -207q-1 -7 0 -14q0 -55 39 -76q41 -18 82 -18q17 0 33 3q56 10 94 54q29 34 28 72q0 11 -2 23q-4 22 -4 38q0 23 9 31q6 5 18 5q18 0 50 -12q35 -14 41 -31q3 -8 3 -23q0 -19 -4 -49q-17 -114 -129 -178q-80 -46 -173 -45q-36 0 -75 7q-76 14 -110 60 q-29 38 -29 101q0 13 1 26q7 81 56 200l67 165l-71 11q-69 10 -69 41z" />
<glyph unicode="u" horiz-adv-x="837" d="M22 328q-2 13 -2 28q0 64 38 139q24 43 40 83t31.5 87t27.5 77q10 25 3 29t-45 -5q-31 -7 -46.5 -2t-23.5 27q-7 17 -7 33q0 62 108 99q77 29 114 29h4q36 -2 61 -32q16 -22 10.5 -49t-41.5 -98q-60 -123 -104 -237.5t-44 -152.5q0 -26 16.5 -35t65.5 -9t82 18.5t90 76.5 q38 39 79 99.5t61 105.5q68 152 105 207.5t72 60.5q9 1 17 1q41 0 41 -41v-7q-3 -53 -63 -169q-97 -188 -97 -307q0 -18 2 -34q13 -89 92 -89h5q13 0 27 3q36 9 50.5 1.5t22.5 -40.5q4 -14 4 -27q0 -32 -28 -52q-25 -19 -62 -19q-19 0 -42 5q-76 15 -123 51.5t-58 89.5 q-5 24 -6.5 33t-7 19t-9 10t-15.5 -4t-22.5 -11.5t-33.5 -24.5q-69 -49 -168 -71q-48 -10 -84 -11q-39 0 -66 12q-61 27 -71 103z" />
<glyph unicode="v" horiz-adv-x="579" d="M22 878q4 64 25 82q17 14 31 14q37 0 53 -93q12 -63 13 -165q2 -96 2 -147.5t-2 -59.5q-1 -7 8 -15.5t23 -13.5q7 -3 16 -3q37 0 99 54q76 66 116 152q38 77 38 99q0 23 -25 68q-26 44 -26.5 62.5t22.5 54.5q35 53 67 53q14 0 27 -9q42 -28 50 -121q1 -16 1 -31 q0 -72 -26 -146q-31 -90 -116 -202.5t-174 -186.5q-76 -62 -117 -62q-7 0 -14 2q-50 13 -62 29q-13 10 -26 326q-4 125 -4 196q0 40 1 63z" />
<glyph unicode="w" horiz-adv-x="1089" d="M22 920q7 58 48 58q40 0 72.5 -102t43.5 -262l14 -198l96 128q40 51 80 122.5t57 119.5q31 94 53 112q8 7 18 7q18 0 44 -20q35 -29 48 -172q14 -153 24 -202q8 -41 18 -47.5t42 9.5q102 52 172.5 129t98.5 164q26 84 26.5 107.5t-24.5 49.5q-33 31 -36 71v7q0 35 25 60 q27 27 50 27q35 0 56 -36.5t22 -95.5q0 -127 -73 -302.5t-132 -195.5q-17 -5 -61.5 -38t-88.5 -72q-44 -40 -85.5 -68.5t-55.5 -28.5q-30 1 -54 47q-17 32 -17 57q0 12 3 22q6 14 6 50.5t-6 94.5q-12 86 -21 90q-7 4 -30 -26q-193 -237 -247 -298q-36 -42 -54 -49t-49 10 q-23 11 -31.5 23.5t-8.5 32t7 63.5q18 97 18 198q0 31 -2 62q-7 133 -40 182q-27 43 -27 90q0 10 1 20z" />
<glyph unicode="x" horiz-adv-x="819" d="M25 225q-3 9 -3 19q0 22 16 47q24 36 123 134q40 39 58.5 57.5t40.5 46.5t29 39.5t13 38.5t3 40.5t-12 47.5t-20 59.5t-32 75.5q-30 70 -31.5 94t20.5 45q23 24 44 24q50 0 83 -143q32 -139 49 -157q14 -16 42 16q8 10 22 29q53 77 169 200q49 52 90.5 86t48.5 29 q20 -13 20 -73q0 -62 -60 -93q-24 -14 -79 -66.5t-106 -111.5t-71.5 -84.5t-33.5 -51.5t-11 -39.5t11 -40.5q10 -27 28 -55t33 -39q47 -32 53 -80q1 -7 1 -13q0 -38 -34 -57q-20 -11 -37 -11q-20 0 -36 14q-30 26 -70 122q-40 97 -53 97q-17 0 -100 -97.5t-109 -148.5 q-18 -36 -36 -48.5t-34 0t-29 48.5z" />
<glyph unicode="y" horiz-adv-x="878" d="M24 79q-4 18 -4 33q0 39 29 58q22 13 41.5 8t51.5 -30q25 -18 38 -35.5t6 -24.5q-12 -12 8 -37t56 -44.5t64 -19.5q78 0 132 37t94 115q22 43 42.5 96t30 89.5t2.5 36.5q-9 0 -114 -55q-89 -44 -167 -52q-15 -1 -28 -1q-57 0 -81 27q-34 43 -37 118q-1 8 -1 17 q0 68 25 147q16 46 28 115.5t14 121.5q2 76 10 100.5t34 29.5q17 3 33.5 -1t21.5 -14q4 -5 4 -30q0 -22 -3 -58q-6 -80 -21 -179q-26 -172 -26 -210.5t26 -53.5q11 -6 27 -6q39 0 108 35q157 81 220 357q21 99 48 160q19 43 62 47q4 1 8 1q36 0 49 -34q5 -15 -1 -59t-21 -91 q-30 -93 -81 -344q-36 -182 -80 -296t-112 -204q-30 -39 -49 -51t-52 -16.5t-123 -4.5q-89 0 -123 4t-56.5 17t-58.5 51q-59 65 -74 130z" />
<glyph unicode="z" horiz-adv-x="733" d="M23 788q9 48 43 64q13 6 26 7q20 0 41 -16q19 -16 97 -16q38 0 88 4q156 11 182 37q10 10 33.5 15t46.5 2q60 -8 60 -53v-7q-4 -51 -76 -138q-113 -135 -176.5 -213.5t-101 -126.5t-47 -65.5t-5.5 -21.5q2 -2 17 -2q39 0 175 16q184 22 196 32q15 16 52.5 -16.5 t37.5 -60.5q0 -43 -40 -63q-27 -13 -68 -13q-20 0 -44 3q-19 3 -46 3q-77 0 -221 -25q-114 -19 -168 -19q-35 0 -45 8q-28 23 -28 79v8q2 62 34 87q41 32 201.5 225.5t160.5 208.5q0 4 -23 6t-62.5 0t-84.5 -6q-88 -9 -137 -11h-18q-37 0 -61 6q-30 6 -37 20.5t-2 41.5z" />
<glyph unicode="{" horiz-adv-x="585" d="M19.5 549q-0.5 9 3.5 18.5t9.5 14t21 11t32 10.5t49.5 11l61 14l-26 339l84 110q86 109 134 112q49 3 64 18q38 38 77 -40q26 -59 8 -93t-68 -24q-32 5 -56.5 -7t-55.5 -50q-39 -46 -45.5 -75.5t5.5 -113.5q17 -130 14 -179q-7 -111 -18.5 -171t-36.5 -106 q-35 -72 -42 -132q-5 -43 5.5 -54.5t58.5 -16.5q30 -3 65.5 5t55.5 22q51 36 80.5 32t51.5 -52q13 -29 13.5 -49t-10.5 -34.5t-40 -22.5t-71.5 -11.5t-107.5 -3.5q-98 0 -147 8.5t-74.5 30.5t-40.5 69q-5 18 1 54.5t21 68.5q34 84 31 121t-46 55q-23 10 -39 33t-19 51 q-2 18 -2.5 27z" />
<glyph unicode="|" horiz-adv-x="174" d="M20 -112l5 693q1 178 4 348.5t6 267t5 104.5q5 11 24 20t38 9h51v-1456z" />
<glyph unicode="}" horiz-adv-x="829" d="M21 30.5q0 13.5 26 39.5t41.5 26t61.5 -28q52 -30 113.5 -35.5t148.5 11.5q142 29 31 143q-42 44 -52.5 76.5t-8.5 119.5q1 120 49 220.5t147 195.5q97 93 97 148q0 31 -36 35q-58 5 -101.5 -4.5t-98.5 -39.5q-52 -26 -67 -26t-37 28q-31 43 -14.5 85.5t67.5 53.5 q66 15 80 20q33 11 141 8.5t127 -15.5q23 -15 48 -76t25 -104q0 -18 -39.5 -75.5t-94.5 -116.5q-97 -107 -109.5 -130.5t16.5 -49.5q53 -45 70 -70.5t8.5 -48.5t-47.5 -60l-71 -64l55 -83q52 -76 54 -115.5t-45 -85.5q-56 -51 -123.5 -69t-217.5 -21q-81 -5 -125 -0.5 t-59 14t-34 39.5q-26 41 -26 54.5z" />
<glyph unicode="~" horiz-adv-x="1013" d="M21 580q-5 33 29 72q19 19 57 44.5t73 41.5q99 43 167.5 37.5t140.5 -62.5q76 -60 126 -79q52 -16 124 4.5t113 63.5q21 23 44.5 39.5t33.5 16.5q23 0 47 -49t14 -79q-17 -44 -115.5 -79.5t-205.5 -35.5q-93 0 -131.5 12t-95.5 57q-74 58 -143.5 58t-127.5 -58 q-52 -52 -106 -44q-38 6 -44 40z" />
<glyph unicode="&#xa2;" horiz-adv-x="620" d="M21 436q7 86 65 181t149 171q101 82 101 137q0 50 33.5 117.5t70.5 67.5q21 0 25 -16.5t-5 -71.5q-11 -70 -4 -76q6 -4 32 10q41 22 77 8t36 -50t-97 -66l-97 -29l-66 -200q-68 -205 -53 -216q23 -20 90 8t75 62q7 26 23 34.5t52 3.5q36 -3 49 -16t13 -46 q0 -50 -54.5 -79.5t-177.5 -45.5q-48 -7 -72 -13.5t-43.5 -24t-29.5 -41t-24 -71.5q-17 -67 -68 -73q-28 -4 -41 11.5t-6.5 45t31.5 62.5q33 43 28.5 60t-56.5 42q-39 20 -49 40t-7 74zM105 427q32 -52 84 25q48 69 92 213q13 46 -1 46t-65 -53q-49 -56 -86 -133t-24 -98z " />
<glyph unicode="&#xa3;" horiz-adv-x="825" d="M27 857q-20 55 21 74.5t153 8.5q40 -4 59 -5.5t40 -0.5t28 3t16.5 11t13.5 16.5t13 26.5q44 103 97.5 168.5t104.5 80.5q69 21 146 17q49 -3 63.5 -14t19.5 -49q7 -50 -15 -59.5t-126 -2.5q-40 1 -68 -14.5t-68 -62.5q-29 -32 -50 -61t-21 -36q0 -18 35.5 -32t79.5 -14 q41 0 39 -17q-3 -20 -49 -37q-24 -9 -52 -12q-50 -7 -68 -18t-18 -37q0 -23 21 -37.5t74 -28.5q83 -19 77 -37q-8 -19 -106 -19q-69 0 -85.5 -13.5t-41.5 -89.5q-16 -48 -20.5 -69t-1 -35.5t18.5 -29.5q14 -14 28 -41.5t19 -53.5q8 -44 25.5 -54t88.5 -10q204 0 223 121 l13 66l29 -50q50 -91 -22 -155t-245 -83q-79 -10 -109 -4t-61 37q-18 18 -32 45t-14 45q0 22 -2 31.5t-11.5 9.5t-24.5 -9.5t-45 -31.5q-55 -40 -96 -30.5t-41 61.5q0 43 17.5 68.5t72.5 59.5q43 26 81.5 96.5t20.5 88.5q-10 13 -84 -11q-56 -19 -93 -3.5t-37 58.5 q0 24 57 40.5t192 31.5q15 3 15 47q0 31 -20 35.5t-118 -5.5q-91 -9 -119 -4.5t-38 29.5z" />
<glyph unicode="&#xa7;" />
<glyph unicode="&#xab;" horiz-adv-x="987" d="M20 570q0 13 39 51.5t94 80.5q53 40 92.5 76t39.5 43q0 16 44 64q40 41 75 33t35 -59q0 -22 -33.5 -65t-92.5 -94q-73 -66 -93 -101t1.5 -58t96.5 -50q63 -23 80.5 -62t-14.5 -83q-22 -27 -34.5 -28.5t-49.5 21.5q-96 59 -188 135t-92 96zM484 560q-16 55 83 116 q88 58 191 154q88 82 122.5 96t51.5 -25q14 -37 -4.5 -71.5t-67.5 -60.5q-57 -33 -133 -100l-75 -63l119 -58q125 -55 144 -55q11 0 22.5 -10t16.5 -25q20 -59 5.5 -88t-60.5 -20t-103 55q-36 28 -86 51.5t-86 30.5q-124 18 -140 73z" />
<glyph unicode="&#xad;" horiz-adv-x="509" d="M22 528q4 21 15 31q17 18 181 13.5t235 -26.5q49 -15 32 -38q-19 -27 -89 -32q-24 -2 -49 0q-64 0 -178 -14q-66 -8 -92 -8.5t-37.5 7t-16.5 28.5q-5 18 -1 39z" />
<glyph unicode="&#xbb;" horiz-adv-x="923" d="M29 262q-20 20 2 75t55 68q55 25 124 86l77 68l-66 55q-109 91 -124 110q-15 20 -4 43q1 4 6 13q18 32 64 42q40 9 46 -13q1 -2 1 -5q0 -23 82 -101t118 -89q26 -8 33 -25t4 -58q-3 -44 -16.5 -59t-53.5 -18q-27 -3 -70.5 -32t-88.5 -74q-139 -136 -189 -86zM518 813 q0 22 8.5 40t19.5 21q34 16 51.5 6.5t61.5 -67.5q25 -32 68 -68t77 -54q45 -23 67 -41.5t30.5 -40t-7 -50.5t-45 -64t-84.5 -90q-153 -153 -197 -151q-28 2 -28 61q0 36 16 59.5t59 48.5q30 17 63 47.5t51 55.5q28 41 28 54.5t-26 31.5q-140 95 -176.5 129.5t-36.5 71.5z " />
<glyph unicode="&#xbf;" />
<glyph unicode="&#xc0;" />
<glyph unicode="&#xc1;" />
<glyph unicode="&#xc2;" />
<glyph unicode="&#xc4;" />
<glyph unicode="&#xc7;" />
<glyph unicode="&#xc8;" />
<glyph unicode="&#xc9;" />
<glyph unicode="&#xca;" />
<glyph unicode="&#xcb;" />
<glyph unicode="&#xce;" />
<glyph unicode="&#xcf;" />
<glyph unicode="&#xd1;" />
<glyph unicode="&#xd3;" />
<glyph unicode="&#xd4;" />
<glyph unicode="&#xd6;" />
<glyph unicode="&#xd9;" />
<glyph unicode="&#xda;" />
<glyph unicode="&#xdb;" />
<glyph unicode="&#xdc;" />
<glyph unicode="&#xdf;" />
<glyph unicode="&#xe0;" />
<glyph unicode="&#xe1;" />
<glyph unicode="&#xe2;" />
<glyph unicode="&#xe4;" />
<glyph unicode="&#xe7;" />
<glyph unicode="&#xe8;" />
<glyph unicode="&#xe9;" />
<glyph unicode="&#xea;" />
<glyph unicode="&#xeb;" />
<glyph unicode="&#xee;" />
<glyph unicode="&#xef;" />
<glyph unicode="&#xf3;" />
<glyph unicode="&#xf4;" />
<glyph unicode="&#xf6;" />
<glyph unicode="&#xf9;" />
<glyph unicode="&#xfa;" />
<glyph unicode="&#xfb;" />
<glyph unicode="&#xfc;" />
<glyph unicode="&#x2000;" horiz-adv-x="709" />
<glyph unicode="&#x2001;" horiz-adv-x="1418" />
<glyph unicode="&#x2002;" horiz-adv-x="709" />
<glyph unicode="&#x2003;" horiz-adv-x="1418" />
<glyph unicode="&#x2004;" horiz-adv-x="472" />
<glyph unicode="&#x2005;" horiz-adv-x="354" />
<glyph unicode="&#x2006;" horiz-adv-x="236" />
<glyph unicode="&#x2007;" horiz-adv-x="236" />
<glyph unicode="&#x2008;" horiz-adv-x="177" />
<glyph unicode="&#x2009;" horiz-adv-x="283" />
<glyph unicode="&#x200a;" horiz-adv-x="78" />
<glyph unicode="&#x2010;" horiz-adv-x="509" d="M22 528q4 21 15 31q17 18 181 13.5t235 -26.5q49 -15 32 -38q-19 -27 -89 -32q-24 -2 -49 0q-64 0 -178 -14q-66 -8 -92 -8.5t-37.5 7t-16.5 28.5q-5 18 -1 39z" />
<glyph unicode="&#x2011;" horiz-adv-x="509" d="M22 528q4 21 15 31q17 18 181 13.5t235 -26.5q49 -15 32 -38q-19 -27 -89 -32q-24 -2 -49 0q-64 0 -178 -14q-66 -8 -92 -8.5t-37.5 7t-16.5 28.5q-5 18 -1 39z" />
<glyph unicode="&#x2012;" horiz-adv-x="509" d="M22 528q4 21 15 31q17 18 181 13.5t235 -26.5q49 -15 32 -38q-19 -27 -89 -32q-24 -2 -49 0q-64 0 -178 -14q-66 -8 -92 -8.5t-37.5 7t-16.5 28.5q-5 18 -1 39z" />
<glyph unicode="&#x2013;" horiz-adv-x="1062" d="M24 528q9 21 33 31q37 18 395 13.5t513 -26.5q107 -15 69 -38q-41 -27 -194 -32q-52 -2 -107 0q-139 0 -388 -14q-144 -8 -201 -8.5t-82 7t-36 28.5q-11 18 -2 39z" />
<glyph unicode="&#x2014;" horiz-adv-x="2086" d="M27.5 528q17.5 21 65.5 31q74 18 790 13.5t1026 -26.5q214 -15 140 -38q-83 -27 -389 -32q-104 -2 -214 0q-279 0 -777 -14q-288 -8 -401.5 -8.5t-163.5 7t-72 28.5q-22 18 -4.5 39z" />
<glyph unicode="&#x2019;" horiz-adv-x="358" d="M33 702q-51 31 90 315q86 165 86 199q0 28 24 72q14 27 37.5 34.5t43 -7t23.5 -44.5q5 -33 -74 -198.5t-129 -226.5q-30 -35 -53 -95q-12 -26 -25.5 -40t-22.5 -9z" />
<glyph unicode="&#x201c;" horiz-adv-x="649" d="M26 -6q-18 51 20 127q36 72 36 115q0 19 10.5 44.5t26.5 41.5q15 16 32 27.5t25 11.5q32 0 68 -42.5t36 -80.5q0 -39 -30 -79t-60 -40q-8 0 -14 -12.5t-6 -29.5q0 -25 15.5 -36.5t56.5 -14.5q40 -3 55.5 -14t15.5 -36q0 -38 -54.5 -50t-145.5 6q-69 11 -87 62zM368 55 q0 53 31.5 124.5t54.5 71.5q7 0 20 16.5t22 38.5q17 36 32.5 47t33.5 -0.5t42 -48.5q28 -44 22.5 -60.5t-66.5 -67.5q-82 -69 -82 -90q0 -8 20 -26.5t46 -33.5q44 -25 57.5 -44t-4.5 -29t-66 -10q-86 0 -124.5 26.5t-38.5 85.5z" />
<glyph unicode="&#x201d;" horiz-adv-x="729" d="M23.5 938q-6.5 34 3.5 82t37 127q9 29 16.5 50t20 53t24 53.5t26.5 45t30.5 33t32.5 12.5t35.5 -10.5t37.5 -42.5q25 -38 25 -55t-25 -53q-28 -48 -90 -110q-59 -59 -55.5 -116t66.5 -80q70 -27 68 -56q-2 -25 -53 -30q-45 -3 -101 13q-46 14 -69 32t-29.5 52zM370 895 q-10 26 0 78q11 75 74 166.5t138 142.5q49 32 67.5 35t38.5 -18q33 -33 15.5 -74.5t-75.5 -66.5q-60 -26 -109 -105.5t-38 -129.5q5 -22 24.5 -46.5t43.5 -39.5q35 -23 47 -41t-0.5 -28t-48.5 -10q-25 0 -59.5 18t-64.5 48q-43 45 -53 71z" />
<glyph unicode="&#x2022;" horiz-adv-x="333" d="M21 707.5q4 38.5 60 96.5q81 81 145.5 61t83.5 -132q9 -46 -15.5 -84t-63.5 -55t-87 -10.5t-83 41.5q-44 44 -40 82.5z" />
<glyph unicode="&#x202f;" horiz-adv-x="283" />
<glyph unicode="&#x205f;" horiz-adv-x="354" />
<glyph unicode="&#x20ac;" horiz-adv-x="989" d="M33 601q31 35 105 33t79 17q2 13 -35 27q-33 13 -27 73q5 40 20 52.5t62 15.5q69 5 198 113q113 98 311 220q181 110 212 103q12 -3 10 -20q-2 -9 -2 -59q0 -44 -46 -44q-41 0 -174 -68t-133 -88q0 -8 -8.5 -14t-19.5 -6t-38.5 -19t-51.5 -45l-60 -64l143 -9 q169 -11 169 -39q0 -6 -8 -14q-10 -13 -207 -33q-219 -24 -229 -62q-7 -32 144 -56q3 -1 6 -1q95 -14 92 -31q-3 -22 -134 -28l-139 -7l2 -103q0 -41 9 -81.5t20 -55.5q33 -40 163.5 -34t265.5 54q149 53 166 37q10 -9 -11 -43q-19 -30 -91 -60.5t-160 -48t-177.5 -24.5 t-144.5 9q-89 23 -112 231q-8 76 -18 87.5t-51 -3.5q-32 -13 -51 -10t-39 23q-41 40 -10 75z" />
<glyph unicode="&#x25fc;" horiz-adv-x="1054" d="M0 0v1055h1055v-1055h-1055z" />
</font>
</defs>
</svg>
